<svg id="Слой_1" data-name="Слой 1" xmlns="http://www.w3.org/2000/svg" viewBox="0 0 60.18 68.33"><defs><style>.cls-1{fill:none;stroke:#010e23;stroke-width:3px;}</style></defs><title>Group 404</title><path class="cls-1" d="M59.93,19.62h0A10.1,10.1,0,0,0,51,4.83H14A10.1,10.1,0,0,0,5.07,19.62h0L23.59,55.23a10,10,0,0,0,17.83,0Z" transform="translate(-2.41 -3.33)"/><path class="cls-1" d="M5.07,55.38A10.1,10.1,0,0,0,14,70.16H51a10.1,10.1,0,0,0,8.91-14.78L50.63,37.5,41.41,19.77a10,10,0,0,0-17.82,0L14.37,37.5Z" transform="translate(-2.41 -3.33)"/></svg>