<?xml version="1.0" encoding="utf-8"?>
<!-- Generator: Adobe Illustrator 20.1.0, SVG Export Plug-In . SVG Version: 6.00 Build 0)  -->
<svg version="1.1" id="Слой_1" xmlns="http://www.w3.org/2000/svg" xmlns:xlink="http://www.w3.org/1999/xlink" x="0px" y="0px"
	 viewBox="0 0 65 75" style="enable-background:new 0 0 65 75;" xml:space="preserve">
<style type="text/css">
	.st0{fill:none;stroke:#010E23;stroke-width:3;}
</style>
<path class="st0" d="M62.2,18.1L62.2,18.1c3.8-7.3-1.5-16-9.7-16H12.4c-8.2,0-13.5,8.7-9.7,16c0,0,0,0,0,0l20.1,38.6
	c4.1,7.8,15.2,7.8,19.3,0L62.2,18.1z M2.8,56.9l10.1-19.4l10-19.2c2-3.9,5.9-5.9,9.7-5.9s7.6,2,9.7,5.9l10,19.2l10.1,19.4
	 M62.2,56.9c3.8,7.3-1.5,16-9.7,16H12.4c-8.2,0-13.5-8.7-9.7-16"/>
</svg>
