<svg width="0" height="0" class="hidden">
  <!-- logo -->
  <symbol fill="none" xmlns="http://www.w3.org/2000/svg" viewBox="0 0 35 41" id="logo">
    <g clip-path="url(#clip0_1741_26)">
      <path d="M12.3999 30.8004L7.09994 20.6004L1.59994 10.2004C-0.400059 6.40039 2.39994 1.90039 6.59994 1.90039H27.9999C32.1999 1.90039 34.8999 6.40039 32.9999 10.2004L27.6999 20.6004L22.3999 30.8004C21.2999 32.8004 19.3999 33.8004 17.3999 33.8004C15.3999 33.8004 13.4999 32.8004 12.3999 30.8004Z"></path>
      <path d="M33.0999 31.0004L22.2999 10.4004C20.1999 6.40039 14.3999 6.40039 12.2999 10.4004L1.59994 31.0004C-0.400059 34.8004 2.39994 39.3004 6.59994 39.3004H27.9999C32.2999 39.3004 34.9999 34.8004 33.0999 31.0004Z"></path>
    </g>
    <defs>
      <clipPath id="clip0_1741_26">
        <rect width="35" height="41" fill="white"></rect>
      </clipPath>
    </defs>
  </symbol>

  <!-- logo-footer -->
  <!-- <symbol version="1.1" id="logo-footer" xmlns="http://www.w3.org/2000/svg" xmlns:xlink="http://www.w3.org/1999/xlink" x="0px" y="0px" xml:space="preserve" viewBox="0 0 58 58">
    <path d="M48.5,40.5l-6-11.4l5.9-11.6l0,0c1.3-2.5,1.1-5.5-0.3-7.8c-1.4-2.3-3.9-3.7-6.7-3.7H16.6
	c-2.8,0-5.3,1.4-6.8,3.8c-1.4,2.4-1.5,5.3-0.2,7.8l6,11.3l-6,11.7c-1.3,2.5-1.2,5.4,0.2,7.8c1.4,2.4,4,3.8,6.8,3.8h24.8
	c2.8-0.1,5.4-1.5,6.8-4C49.6,45.8,49.7,42.9,48.5,40.5z M12,16.3c-0.9-1.6-0.8-3.5,0.1-5.1c1-1.6,2.6-2.5,4.5-2.5h24.8
	c1.8,0,3.4,0.9,4.4,2.4c1,1.6,1.1,3.5,0.2,5.2l-5,9.9l-5-9.6c-1.4-2.6-4-4.2-7-4.2s-5.6,1.6-7,4.2l-4.9,9.4L12,16.3z M39.5,29.1
	l-5.7,11c-1,1.8-2.7,2.8-4.6,2.8c-2,0-3.6-1-4.6-2.7l-5.9-11.3l5.7-11.1C25.3,16,27,15,29,15c2,0,3.7,1,4.6,2.8L39.5,29.1z
	 M45.9,46.7c-1,1.6-2.7,2.6-4.5,2.6H16.6c-1.8,0-3.5-0.9-4.5-2.5c-1-1.6-1-3.5-0.1-5.1l5.2-10l5,9.7c1.4,2.6,4,4.2,7,4.2
	s5.5-1.6,7-4.2L41,32l5.1,9.7C46.9,43.3,46.8,45.2,45.9,46.7z"></path>
  </symbol> -->

  <!-- <symbol version="1.1" id="logo-footer" xmlns="http://www.w3.org/2000/svg" xmlns:xlink="http://www.w3.org/1999/xlink" x="0px" y="0px" xml:space="preserve" viewBox="0 0 58 58">
    <path d="M48.5,40.5l-6-11.4l5.9-11.6l0,0c1.3-2.5,1.1-5.5-0.3-7.8c-1.4-2.3-3.9-3.7-6.7-3.7H16.6
	c-2.8,0-5.3,1.4-6.8,3.8c-1.4,2.4-1.5,5.3-0.2,7.8l6,11.3l-6,11.7c-1.3,2.5-1.2,5.4,0.2,7.8c1.4,2.4,4,3.8,6.8,3.8h24.8
	c2.8-0.1,5.4-1.5,6.8-4C49.6,45.8,49.7,42.9,48.5,40.5z M12,16.3c-0.9-1.6-0.8-3.5,0.1-5.1c1-1.6,2.6-2.5,4.5-2.5h24.8
	c1.8,0,3.4,0.9,4.4,2.4c1,1.6,1.1,3.5,0.2,5.2l-5,9.9l-5-9.6c-1.4-2.6-4-4.2-7-4.2s-5.6,1.6-7,4.2l-4.9,9.4L12,16.3z M39.5,29.1
	l-5.7,11c-1,1.8-2.7,2.8-4.6,2.8c-2,0-3.6-1-4.6-2.7l-5.9-11.3l5.7-11.1C25.3,16,27,15,29,15c2,0,3.7,1,4.6,2.8L39.5,29.1z
	 M45.9,46.7c-1,1.6-2.7,2.6-4.5,2.6H16.6c-1.8,0-3.5-0.9-4.5-2.5c-1-1.6-1-3.5-0.1-5.1l5.2-10l5,9.7c1.4,2.6,4,4.2,7,4.2
	s5.5-1.6,7-4.2L41,32l5.1,9.7C46.9,43.3,46.8,45.2,45.9,46.7z"></path>
  </symbol> -->


  <symbol version="1.1" id="logo-footer" xmlns="http://www.w3.org/2000/svg" xmlns:xlink="http://www.w3.org/1999/xlink" x="0px" y="0px" xml:space="preserve" viewBox="0 0 65 75">
    <path d="M62.2,18.1L62.2,18.1c3.8-7.3-1.5-16-9.7-16H12.4c-8.2,0-13.5,8.7-9.7,16c0,0,0,0,0,0l20.1,38.6
	c4.1,7.8,15.2,7.8,19.3,0L62.2,18.1z M2.8,56.9l10.1-19.4l10-19.2c2-3.9,5.9-5.9,9.7-5.9s7.6,2,9.7,5.9l10,19.2l10.1,19.4
	 M62.2,56.9c3.8,7.3-1.5,16-9.7,16H12.4c-8.2,0-13.5-8.7-9.7-16" stroke="currentColor"
    stroke-width="2" 
    fill="none"></path>
  </symbol>

  <!-- cross -->
  <symbol xmlns="http://www.w3.org/2000/svg" viewBox="0 0 28 28" id="cross">
    <path d="M12.6 0H15.4V9.8H12.6V0ZM12.6 18.2H15.4V28H12.6V18.2ZM18.2 12.6H28V15.4H18.2V12.6ZM0 12.6H9.8V15.4H0V12.6Z"></path>
  </symbol>

  <!-- quote -->
  <symbol xmlns="http://www.w3.org/2000/svg" viewBox="0 0 50 38" id="quote">
    <path d="M0 0.25V37.75L18.75 19V0.25H0ZM31.25 0.25V37.75L50 19V0.25H31.25Z"></path>
  </symbol>

  <!-- whats app -->


  <!-- <symbol id="whatsApp" xmlns="http://www.w3.org/2000/svg" viewBox="0 0 50 50">
    <defs></defs>
    <title>Vector</title>
    <path d="M4.59,24.6A20.42,20.42,0,0,0,7.06,34.75l-2.33,7a2.8,2.8,0,0,0,3.55,3.54l7-2.33A20.42,20.42,0,1,0,4.59,24.6Z"></path>
    <path d="M19.55,13.45l2.8,5.6-2.3,3.44a1.33,1.33,0,0,0-.12,1.24,12,12,0,0,0,6.43,6.43,1.33,1.33,0,0,0,.51.1H27A1.33,1.33,0,0,0,27.6,30L31,27.74l5.6,2.8a5.75,5.75,0,0,1-5.69,5A16.38,16.38,0,0,1,14.59,19.14a5.75,5.75,0,0,1,5-5.69m0-2-.28,0a7.75,7.75,0,0,0-6.68,7.67A18.38,18.38,0,0,0,31,37.5a7.75,7.75,0,0,0,7.68-6.68,2,2,0,0,0-1.09-2.06L31.94,26a2,2,0,0,0-2,.12L26.8,28.17a10,10,0,0,1-4.88-4.88L24,20.15a2,2,0,0,0,.12-2l-2.8-5.6a2,2,0,0,0-1.79-1.11Z"></path>
  </symbol> -->


  <symbol id="whatsApp" xmlns="http://www.w3.org/2000/svg" viewBox="0 0 50 50">
    <path d="M25,7.83a17.17,17.17,0,0,1,6.87,32.89A17.07,17.07,0,0,1,25,42.17l-.73,0a17.26,17.26,0,0,1-7.46-2.06,2,2,0,0,0-1.59-.14L8.67,42.13a.63.63,0,0,1-.2,0l-.15,0a.63.63,0,0,1-.45-.81l2.18-6.55a2,2,0,0,0-.14-1.59A17.17,17.17,0,0,1,25,7.83h0m0-2A19.17,19.17,0,0,0,8.16,34.15L6,40.7A2.63,2.63,0,0,0,9.3,44l6.55-2.18a19.17,19.17,0,0,0,8.33,2.3l.81,0A19.17,19.17,0,0,0,25,5.83Z"></path>
    <path d="M19.82,15.65l2.38,4.76-2,2.93a1.13,1.13,0,0,0-.1,1.06,10.23,10.23,0,0,0,5.46,5.46,1.13,1.13,0,0,0,.43.09h.11a1.13,1.13,0,0,0,.52-.18l2.93-2,4.76,2.38a4.89,4.89,0,0,1-4.84,4.21A13.92,13.92,0,0,1,15.61,20.49a4.89,4.89,0,0,1,4.21-4.84m0-2-.28,0a6.89,6.89,0,0,0-5.94,6.82A15.92,15.92,0,0,0,29.51,36.4a6.89,6.89,0,0,0,6.82-5.94,2,2,0,0,0-1.09-2.06L30.49,26a2,2,0,0,0-2,.12L26,27.82A8.17,8.17,0,0,1,22.18,24l1.68-2.52a2,2,0,0,0,.12-2l-2.38-4.76a2,2,0,0,0-1.79-1.11Z"></path>
  </symbol>


  <!-- <symbol version="1.1" id="whatsApp" xmlns="http://www.w3.org/2000/svg"  xmlns:xlink="http://www.w3.org/1999/xlink" x="0px" y="0px" xml:space="preserve" viewBox="0 0 58 58">
    <path d="M25,2a23,23,0,0,1,9.21,44.07A22.87,22.87,0,0,1,25,48l-1,0a23.13,23.13,0,0,1-10-2.76,2,2,0,0,0-1.59-.14L3.89,47.92a1.43,1.43,0,0,1-1.81-1.81l2.85-8.55A2,2,0,0,0,4.79,36,23,23,0,0,1,25,2h0m0-2A25,25,0,0,0,3,36.93L.18,45.48a3.43,3.43,0,0,0,4.34,4.34L13.07,47a25,25,0,0,0,10.87,3L25,50A25,25,0,0,0,25,0Z" transform="translate(0)"></path>
    <path d="M18.25,12.81,21.35,19,18.8,22.83a1.47,1.47,0,0,0-.13,1.38,13.34,13.34,0,0,0,7.13,7.13,1.47,1.47,0,0,0,.57.11h.14a1.47,1.47,0,0,0,.67-.24L31,28.66l6.21,3.1a6.37,6.37,0,0,1-6.31,5.5A18.16,18.16,0,0,1,12.75,19.12a6.37,6.37,0,0,1,5.5-6.31m0-2-.28,0a8.37,8.37,0,0,0-7.22,8.29A20.16,20.16,0,0,0,30.89,39.25,8.37,8.37,0,0,0,39.18,32,2,2,0,0,0,38.1,30l-6.21-3.1a2,2,0,0,0-2,.12l-3.58,2.39a11.27,11.27,0,0,1-5.68-5.68L23,20.12a2,2,0,0,0,.12-2L20,11.91a2,2,0,0,0-1.79-1.11Z" transform="translate(0)"></path>
  </symbol> -->

    <!-- telegram -->
  <symbol version="1.1" id="telegram" xmlns="http://www.w3.org/2000/svg" xmlns:xlink="http://www.w3.org/1999/xlink" x="0px" y="0px" xml:space="preserve" viewBox="0 0 58 58">
    <path d="M38.5,19.8c0.7,0,1.3,0.7,1,1.9l-3.6,17.4c-0.2,0.8-0.6,1.2-1.1,1.2c-0.3,0-0.6-0.1-0.9-0.3l-8.7-6.5c0,0-0.1-0.1-0.1-0.1
	c0,0,0-0.1,0-0.1c0,0,0-0.1,0-0.1c0,0,0-0.1,0.1-0.1l10-9.2c0.3-0.3,0.2-0.4-0.1-0.4c-0.2,0-0.4,0.1-0.6,0.2l-12.6,8
	c0,0-0.1,0-0.1,0c0,0,0,0,0,0c0,0-0.1,0-0.1,0l-5.3-1.7c-1.2-0.4-1.2-1.2,0.3-1.8L37.9,20C38.1,19.9,38.3,19.8,38.5,19.8 M38.5,17.1
	c0,0-0.1,0-0.1,0c-0.5,0-1,0.1-1.5,0.3l-21.3,8.3c-2.7,1.1-2.9,2.9-2.8,3.7c0.1,1.5,1.1,2.7,2.8,3.2l5.3,1.7
	c0.3,0.1,0.6,0.1,0.9,0.1c0.1,0,0.3,0,0.4,0c0.1,0,0.3,0,0.4-0.1c0,0.1,0.1,0.2,0.1,0.3c0.2,0.4,0.5,0.8,0.9,1.1l8.7,6.5
	c0.1,0.1,0.2,0.1,0.3,0.2c0.7,0.4,1.5,0.6,2.2,0.6c1.5,0,3.2-0.9,3.8-3.4l3.6-17.3c0.3-1.4,0.1-2.8-0.7-3.8
	C40.7,17.6,39.7,17.1,38.5,17.1L38.5,17.1z"></path>
    <path d="M29,8.6c11.3,0,20.4,9.1,20.4,20.4S40.3,49.4,29,49.4S8.6,40.3,8.6,29S17.7,8.6,29,8.6 M29,5.9C16.3,5.9,5.9,16.3,5.9,29
	S16.3,52.1,29,52.1S52.1,41.7,52.1,29S41.7,5.9,29,5.9L29,5.9z"></path>
  </symbol>

  <!-- instagram -->
  <symbol version="1.1" id="instagram" xmlns="http://www.w3.org/2000/svg" xmlns:xlink="http://www.w3.org/1999/xlink" x="0px" y="0px" xml:space="preserve" viewBox="0 0 58 58">
    <path d="M42.4,15.3C42.4,15.3,42.4,15.3,42.4,15.3C42.4,15.3,42.4,15.3,42.4,15.3C42.4,15.3,42.4,15.3,42.4,15.3
	C42.4,15.3,42.4,15.3,42.4,15.3 M42.4,12.6c-1.5,0-2.7,1.2-2.7,2.7s1.2,2.7,2.7,2.7c1.5,0,2.7-1.2,2.7-2.7S43.9,12.6,42.4,12.6
	L42.4,12.6z"></path>
    <path d="M29,20.7c4.6,0,8.3,3.7,8.3,8.3s-3.7,8.3-8.3,8.3s-8.3-3.7-8.3-8.3S24.4,20.7,29,20.7 M29,18c-6.1,0-11,4.9-11,11
	s4.9,11,11,11s11-4.9,11-11S35.1,18,29,18L29,18z"></path>
    <path d="M40.1,8.6c5.2,0,9.3,4.2,9.3,9.3v22.1c0,5.2-4.2,9.3-9.3,9.3H17.9c-5.2,0-9.3-4.2-9.3-9.3V17.9c0-5.2,4.2-9.3,9.3-9.3H40.1
	 M40.1,5.9H17.9c-6.6,0-12,5.4-12,12v22.1c0,6.6,5.4,12,12,12h22.1c6.6,0,12-5.4,12-12V17.9C52.1,11.3,46.7,5.9,40.1,5.9L40.1,5.9z"></path>
  </symbol>

    <!-- arrow_up -->
  <symbol version="1.1" id="arrow_up" xmlns="http://www.w3.org/2000/svg" xmlns:xlink="http://www.w3.org/1999/xlink" x="0px" y="0px" xml:space="preserve" viewBox="0 0 58 58">
    <g>
      <polygon points="51.2,38.5 29,16.3 6.8,38.5 4.9,36.6 29,12.5 53.1,36.6 	"></polygon>
    </g>
  </symbol>

  <!-- arrow-right -->
  <symbol fill="none" xmlns="http://www.w3.org/2000/svg" viewBox="0 0 17 28" id="icon-arrow-right-flat">
    <path d="M1.98156 28C1.72826 28 1.46904 27.906 1.27464 27.7236C0.885853 27.3587 0.885853 26.7616 1.27464 26.3967L14.5818 13.9074L1.46904 1.60055C1.08025 1.23566 1.08025 0.638563 1.46904 0.27367C1.85783 -0.0912228 2.49403 -0.0912228 2.88282 0.27367L16.7084 13.244C17.0972 13.6088 17.0972 14.2059 16.7084 14.5708L2.69431 27.7236C2.49403 27.9115 2.24076 28 1.98156 28Z" fill="currentColor"></path>
  </symbol>

  <!-- success -->
  <symbol fill="none" xmlns="http://www.w3.org/2000/svg" viewBox="0 0 124 124" id="success">
    <path d="M62 122C95.1371 122 122 95.1371 122 62C122 28.8629 95.1371 2 62 2C28.8629 2 2 28.8629 2 62C2 95.1371 28.8629 122 62 122Z" stroke="currentColor" stroke-width="4" stroke-miterlimit="10"></path>
    <path d="M32.2 55.3002L57.3 85.1002V85.2002L95 40.2002" stroke="currentColor" stroke-width="4" stroke-miterlimit="10" stroke-linejoin="round"></path>
  </symbol>

  <!-- error -->
  <symbol fill="none" xmlns="http://www.w3.org/2000/svg" viewBox="0 0 124 124" id="error">
    <path d="M62 122C95.1371 122 122 95.1371 122 62C122 28.8629 95.1371 2 62 2C28.8629 2 2 28.8629 2 62C2 95.1371 28.8629 122 62 122Z" stroke="currentColor" stroke-width="4" stroke-miterlimit="10"></path>
    <path d="M30.1001 93.9001L93.9001 30.1001" stroke="currentColor" stroke-width="4" stroke-miterlimit="10"></path>
    <path d="M30.1001 30.1001L93.9001 93.9001" stroke="currentColor" stroke-width="4" stroke-miterlimit="10"></path>
  </symbol>
</svg>



