<svg width="0" height="0" class="hidden">
  <!-- logo -->
  <symbol fill="none" xmlns="http://www.w3.org/2000/svg" viewBox="0 0 35 41" id="logo">
    <g clip-path="url(#clip0_1741_26)">
      <path d="M12.3999 30.8004L7.09994 20.6004L1.59994 10.2004C-0.400059 6.40039 2.39994 1.90039 6.59994 1.90039H27.9999C32.1999 1.90039 34.8999 6.40039 32.9999 10.2004L27.6999 20.6004L22.3999 30.8004C21.2999 32.8004 19.3999 33.8004 17.3999 33.8004C15.3999 33.8004 13.4999 32.8004 12.3999 30.8004Z"></path>
      <path d="M33.0999 31.0004L22.2999 10.4004C20.1999 6.40039 14.3999 6.40039 12.2999 10.4004L1.59994 31.0004C-0.400059 34.8004 2.39994 39.3004 6.59994 39.3004H27.9999C32.2999 39.3004 34.9999 34.8004 33.0999 31.0004Z"></path>
    </g>
    <defs>
      <clipPath id="clip0_1741_26">
        <rect width="35" height="41" fill="white"></rect>
      </clipPath>
    </defs>
  </symbol>

  <!-- logo-footer -->
  <!-- <symbol version="1.1" id="logo-footer" xmlns="http://www.w3.org/2000/svg" xmlns:xlink="http://www.w3.org/1999/xlink" x="0px" y="0px" xml:space="preserve" viewBox="0 0 58 58">
    <path d="M48.5,40.5l-6-11.4l5.9-11.6l0,0c1.3-2.5,1.1-5.5-0.3-7.8c-1.4-2.3-3.9-3.7-6.7-3.7H16.6
	c-2.8,0-5.3,1.4-6.8,3.8c-1.4,2.4-1.5,5.3-0.2,7.8l6,11.3l-6,11.7c-1.3,2.5-1.2,5.4,0.2,7.8c1.4,2.4,4,3.8,6.8,3.8h24.8
	c2.8-0.1,5.4-1.5,6.8-4C49.6,45.8,49.7,42.9,48.5,40.5z M12,16.3c-0.9-1.6-0.8-3.5,0.1-5.1c1-1.6,2.6-2.5,4.5-2.5h24.8
	c1.8,0,3.4,0.9,4.4,2.4c1,1.6,1.1,3.5,0.2,5.2l-5,9.9l-5-9.6c-1.4-2.6-4-4.2-7-4.2s-5.6,1.6-7,4.2l-4.9,9.4L12,16.3z M39.5,29.1
	l-5.7,11c-1,1.8-2.7,2.8-4.6,2.8c-2,0-3.6-1-4.6-2.7l-5.9-11.3l5.7-11.1C25.3,16,27,15,29,15c2,0,3.7,1,4.6,2.8L39.5,29.1z
	 M45.9,46.7c-1,1.6-2.7,2.6-4.5,2.6H16.6c-1.8,0-3.5-0.9-4.5-2.5c-1-1.6-1-3.5-0.1-5.1l5.2-10l5,9.7c1.4,2.6,4,4.2,7,4.2
	s5.5-1.6,7-4.2L41,32l5.1,9.7C46.9,43.3,46.8,45.2,45.9,46.7z"></path>
  </symbol> -->


  <symbol version="1.1" id="logo-footer" xmlns="http://www.w3.org/2000/svg" xmlns:xlink="http://www.w3.org/1999/xlink" x="0px" y="0px" xml:space="preserve" viewBox="0 0 58 58">
    <path d="M48.5,40.5l-6-11.4l5.9-11.6l0,0c1.3-2.5,1.1-5.5-0.3-7.8c-1.4-2.3-3.9-3.7-6.7-3.7H16.6
	c-2.8,0-5.3,1.4-6.8,3.8c-1.4,2.4-1.5,5.3-0.2,7.8l6,11.3l-6,11.7c-1.3,2.5-1.2,5.4,0.2,7.8c1.4,2.4,4,3.8,6.8,3.8h24.8
	c2.8-0.1,5.4-1.5,6.8-4C49.6,45.8,49.7,42.9,48.5,40.5z M12,16.3c-0.9-1.6-0.8-3.5,0.1-5.1c1-1.6,2.6-2.5,4.5-2.5h24.8
	c1.8,0,3.4,0.9,4.4,2.4c1,1.6,1.1,3.5,0.2,5.2l-5,9.9l-5-9.6c-1.4-2.6-4-4.2-7-4.2s-5.6,1.6-7,4.2l-4.9,9.4L12,16.3z M39.5,29.1
	l-5.7,11c-1,1.8-2.7,2.8-4.6,2.8c-2,0-3.6-1-4.6-2.7l-5.9-11.3l5.7-11.1C25.3,16,27,15,29,15c2,0,3.7,1,4.6,2.8L39.5,29.1z
	 M45.9,46.7c-1,1.6-2.7,2.6-4.5,2.6H16.6c-1.8,0-3.5-0.9-4.5-2.5c-1-1.6-1-3.5-0.1-5.1l5.2-10l5,9.7c1.4,2.6,4,4.2,7,4.2
	s5.5-1.6,7-4.2L41,32l5.1,9.7C46.9,43.3,46.8,45.2,45.9,46.7z"></path>
  </symbol>


  <!-- cross -->
  <symbol xmlns="http://www.w3.org/2000/svg" viewBox="0 0 28 28" id="cross">
    <path d="M12.6 0H15.4V9.8H12.6V0ZM12.6 18.2H15.4V28H12.6V18.2ZM18.2 12.6H28V15.4H18.2V12.6ZM0 12.6H9.8V15.4H0V12.6Z"></path>
  </symbol>

  <!-- quote -->
  <symbol xmlns="http://www.w3.org/2000/svg" viewBox="0 0 50 38" id="quote">
    <path d="M0 0.25V37.75L18.75 19V0.25H0ZM31.25 0.25V37.75L50 19V0.25H31.25Z"></path>
  </symbol>

  <!-- whats app -->
  <symbol xmlns="http://www.w3.org/2000/svg" viewBox="0 0 58 58" id="whatsApp">
    <path d="M42.2947 33.2209L35.0447 29.5959C34.8305 29.4894 34.5921 29.4412 34.3534 29.4564C34.1147 29.4715 33.8843 29.5493 33.6853 29.682L30.1328 32.0495C28.3344 31.1287 26.8712 29.6656 25.9504 27.8672L28.3203 24.317C28.4529 24.118 28.5308 23.8875 28.5459 23.6488C28.561 23.4102 28.5129 23.1717 28.4064 22.9576L24.7814 15.7076C24.6687 15.4808 24.4948 15.2899 24.2795 15.1566C24.0641 15.0233 23.8158 14.9528 23.5625 14.9531C21.2791 14.9531 19.0893 15.8602 17.4747 17.4748C15.8602 19.0893 14.9531 21.2792 14.9531 23.5625C14.9591 28.7282 17.0138 33.6807 20.6666 37.3334C24.3193 40.9861 29.2717 43.0409 34.4375 43.0469C36.7208 43.0469 38.9106 42.1398 40.5252 40.5252C42.1398 38.9107 43.0468 36.7208 43.0468 34.4375C43.0469 34.1848 42.9766 33.9372 42.8437 33.7222C42.7108 33.5073 42.5207 33.3337 42.2947 33.2209ZM34.4375 40.3281C29.9926 40.3227 25.7313 38.5546 22.5883 35.4116C19.4453 32.2686 17.6772 28.0074 17.6718 23.5625C17.672 22.1408 18.1863 20.7671 19.1198 19.6949C20.0534 18.6227 21.3432 17.9243 22.7514 17.7285L25.6197 23.4651L23.2657 26.9949C23.142 27.1811 23.0661 27.3949 23.0448 27.6174C23.0234 27.8399 23.0573 28.0642 23.1433 28.2705C24.3933 31.2424 26.7575 33.6066 29.7295 34.8566C29.9358 34.9427 30.1601 34.9765 30.3826 34.9552C30.6051 34.9339 30.8189 34.858 31.005 34.7343L34.5349 32.3803L40.2715 35.2486C40.0757 36.6567 39.3773 37.9466 38.3051 38.8801C37.2328 39.8137 35.8592 40.328 34.4375 40.3281ZM29 5.89063C24.9939 5.88978 21.0563 6.93038 17.5737 8.91033C14.0911 10.8903 11.183 13.7416 9.13471 17.1844C7.08643 20.6273 5.96835 24.5436 5.89015 28.5489C5.81195 32.5542 6.77631 36.5111 8.68864 40.0313L6.05599 47.9316C5.86961 48.4904 5.84256 49.0902 5.97787 49.6636C6.11319 50.2369 6.40552 50.7613 6.82209 51.1779C7.23867 51.5945 7.76304 51.8868 8.33642 52.0221C8.9098 52.1574 9.50953 52.1304 10.0684 51.944L17.9686 49.3113C21.0612 50.9896 24.4961 51.9395 28.0115 52.0886C31.5269 52.2377 35.0299 51.5822 38.2535 50.1719C41.4771 48.7616 44.3361 46.6339 46.6124 43.9509C48.8888 41.2679 50.5225 38.1006 51.3889 34.6903C52.2553 31.2801 52.3315 27.7171 51.6118 24.2729C50.892 20.8287 49.3953 17.5944 47.2358 14.8165C45.0763 12.0386 42.3109 9.79052 39.1506 8.24365C35.9903 6.69678 32.5185 5.89199 29 5.89063ZM29 49.3906C25.4156 49.3915 21.8943 48.4475 18.7911 46.6537C18.5841 46.5349 18.35 46.4717 18.1114 46.4702C17.9651 46.4711 17.8199 46.4948 17.6809 46.5405L9.20974 49.3634C9.1299 49.3901 9.04422 49.3939 8.96231 49.3746C8.8804 49.3553 8.80549 49.3135 8.74598 49.254C8.68647 49.1945 8.6447 49.1196 8.62537 49.0377C8.60604 48.9558 8.60991 48.8701 8.63653 48.7902L11.4595 40.3281C11.5206 40.1453 11.5421 39.9515 11.5225 39.7597C11.503 39.5679 11.4429 39.3825 11.3462 39.2157C9.09703 35.3304 8.19296 30.8114 8.77426 26.3598C9.35556 21.9082 11.3897 17.7728 14.5612 14.5953C17.7327 11.4178 21.8641 9.37583 26.3146 8.78608C30.7651 8.19633 35.2858 9.09183 39.1754 11.3336C43.065 13.5754 46.106 17.0382 47.8267 21.1848C49.5474 25.3314 49.8515 29.9299 48.6919 34.2669C47.5323 38.604 44.9738 42.4371 41.4133 45.1716C37.8528 47.9061 33.4894 49.3891 29 49.3906Z" fill="currentColor"></path>
  </symbol>

  <!-- telegram -->
  <symbol version="1.1" id="telegram" xmlns="http://www.w3.org/2000/svg" xmlns:xlink="http://www.w3.org/1999/xlink" x="0px" y="0px" xml:space="preserve" viewBox="0 0 58 58">
    <path d="M38.5,19.8c0.7,0,1.3,0.7,1,1.9l-3.6,17.4c-0.2,0.8-0.6,1.2-1.1,1.2c-0.3,0-0.6-0.1-0.9-0.3l-8.7-6.5c0,0-0.1-0.1-0.1-0.1
	c0,0,0-0.1,0-0.1c0,0,0-0.1,0-0.1c0,0,0-0.1,0.1-0.1l10-9.2c0.3-0.3,0.2-0.4-0.1-0.4c-0.2,0-0.4,0.1-0.6,0.2l-12.6,8
	c0,0-0.1,0-0.1,0c0,0,0,0,0,0c0,0-0.1,0-0.1,0l-5.3-1.7c-1.2-0.4-1.2-1.2,0.3-1.8L37.9,20C38.1,19.9,38.3,19.8,38.5,19.8 M38.5,17.1
	c0,0-0.1,0-0.1,0c-0.5,0-1,0.1-1.5,0.3l-21.3,8.3c-2.7,1.1-2.9,2.9-2.8,3.7c0.1,1.5,1.1,2.7,2.8,3.2l5.3,1.7
	c0.3,0.1,0.6,0.1,0.9,0.1c0.1,0,0.3,0,0.4,0c0.1,0,0.3,0,0.4-0.1c0,0.1,0.1,0.2,0.1,0.3c0.2,0.4,0.5,0.8,0.9,1.1l8.7,6.5
	c0.1,0.1,0.2,0.1,0.3,0.2c0.7,0.4,1.5,0.6,2.2,0.6c1.5,0,3.2-0.9,3.8-3.4l3.6-17.3c0.3-1.4,0.1-2.8-0.7-3.8
	C40.7,17.6,39.7,17.1,38.5,17.1L38.5,17.1z"></path>
    <path d="M29,8.6c11.3,0,20.4,9.1,20.4,20.4S40.3,49.4,29,49.4S8.6,40.3,8.6,29S17.7,8.6,29,8.6 M29,5.9C16.3,5.9,5.9,16.3,5.9,29
	S16.3,52.1,29,52.1S52.1,41.7,52.1,29S41.7,5.9,29,5.9L29,5.9z"></path>
  </symbol>

  <!-- instagram -->
  <symbol version="1.1" id="instagram" xmlns="http://www.w3.org/2000/svg" xmlns:xlink="http://www.w3.org/1999/xlink" x="0px" y="0px" xml:space="preserve" viewBox="0 0 58 58">
    <path d="M42.4,15.3C42.4,15.3,42.4,15.3,42.4,15.3C42.4,15.3,42.4,15.3,42.4,15.3C42.4,15.3,42.4,15.3,42.4,15.3
	C42.4,15.3,42.4,15.3,42.4,15.3 M42.4,12.6c-1.5,0-2.7,1.2-2.7,2.7s1.2,2.7,2.7,2.7c1.5,0,2.7-1.2,2.7-2.7S43.9,12.6,42.4,12.6
	L42.4,12.6z"></path>
    <path d="M29,20.7c4.6,0,8.3,3.7,8.3,8.3s-3.7,8.3-8.3,8.3s-8.3-3.7-8.3-8.3S24.4,20.7,29,20.7 M29,18c-6.1,0-11,4.9-11,11
	s4.9,11,11,11s11-4.9,11-11S35.1,18,29,18L29,18z"></path>
    <path d="M40.1,8.6c5.2,0,9.3,4.2,9.3,9.3v22.1c0,5.2-4.2,9.3-9.3,9.3H17.9c-5.2,0-9.3-4.2-9.3-9.3V17.9c0-5.2,4.2-9.3,9.3-9.3H40.1
	 M40.1,5.9H17.9c-6.6,0-12,5.4-12,12v22.1c0,6.6,5.4,12,12,12h22.1c6.6,0,12-5.4,12-12V17.9C52.1,11.3,46.7,5.9,40.1,5.9L40.1,5.9z"></path>
  </symbol>

    <!-- arrow_up -->
  <symbol version="1.1" id="arrow_up" xmlns="http://www.w3.org/2000/svg" xmlns:xlink="http://www.w3.org/1999/xlink" x="0px" y="0px" xml:space="preserve" viewBox="0 0 58 58">
    <g>
      <polygon points="51.2,38.5 29,16.3 6.8,38.5 4.9,36.6 29,12.5 53.1,36.6 	"></polygon>
    </g>
  </symbol>

  <!-- arrow-right -->
  <symbol fill="none" xmlns="http://www.w3.org/2000/svg" viewBox="0 0 17 28" id="icon-arrow-right-flat">
    <path d="M1.98156 28C1.72826 28 1.46904 27.906 1.27464 27.7236C0.885853 27.3587 0.885853 26.7616 1.27464 26.3967L14.5818 13.9074L1.46904 1.60055C1.08025 1.23566 1.08025 0.638563 1.46904 0.27367C1.85783 -0.0912228 2.49403 -0.0912228 2.88282 0.27367L16.7084 13.244C17.0972 13.6088 17.0972 14.2059 16.7084 14.5708L2.69431 27.7236C2.49403 27.9115 2.24076 28 1.98156 28Z" fill="currentColor"></path>
  </symbol>

  <!-- success -->
  <symbol fill="none" xmlns="http://www.w3.org/2000/svg" viewBox="0 0 124 124" id="success">
    <path d="M62 122C95.1371 122 122 95.1371 122 62C122 28.8629 95.1371 2 62 2C28.8629 2 2 28.8629 2 62C2 95.1371 28.8629 122 62 122Z" stroke="currentColor" stroke-width="4" stroke-miterlimit="10"></path>
    <path d="M32.2 55.3002L57.3 85.1002V85.2002L95 40.2002" stroke="currentColor" stroke-width="4" stroke-miterlimit="10" stroke-linejoin="round"></path>
  </symbol>

  <!-- error -->
  <symbol fill="none" xmlns="http://www.w3.org/2000/svg" viewBox="0 0 124 124" id="error">
    <path d="M62 122C95.1371 122 122 95.1371 122 62C122 28.8629 95.1371 2 62 2C28.8629 2 2 28.8629 2 62C2 95.1371 28.8629 122 62 122Z" stroke="currentColor" stroke-width="4" stroke-miterlimit="10"></path>
    <path d="M30.1001 93.9001L93.9001 30.1001" stroke="currentColor" stroke-width="4" stroke-miterlimit="10"></path>
    <path d="M30.1001 30.1001L93.9001 93.9001" stroke="currentColor" stroke-width="4" stroke-miterlimit="10"></path>
  </symbol>
</svg>



