<svg id="Слой_1" data-name="Слой 1" xmlns="http://www.w3.org/2000/svg" viewBox="0 0 50 50"><defs><style>.cls-1{fill:none;stroke:#000;stroke-linecap:round;stroke-linejoin:round;stroke-width:2px;}</style></defs><title>Vector</title><path class="cls-1" d="M4.59,24.6A20.42,20.42,0,0,0,7.06,34.75l-2.33,7a2.8,2.8,0,0,0,3.55,3.54l7-2.33A20.42,20.42,0,1,0,4.59,24.6Z"/><path d="M19.55,13.45l2.8,5.6-2.3,3.44a1.33,1.33,0,0,0-.12,1.24,12,12,0,0,0,6.43,6.43,1.33,1.33,0,0,0,.51.1H27A1.33,1.33,0,0,0,27.6,30L31,27.74l5.6,2.8a5.75,5.75,0,0,1-5.69,5A16.38,16.38,0,0,1,14.59,19.14a5.75,5.75,0,0,1,5-5.69m0-2-.28,0a7.75,7.75,0,0,0-6.68,7.67A18.38,18.38,0,0,0,31,37.5a7.75,7.75,0,0,0,7.68-6.68,2,2,0,0,0-1.09-2.06L31.94,26a2,2,0,0,0-2,.12L26.8,28.17a10,10,0,0,1-4.88-4.88L24,20.15a2,2,0,0,0,.12-2l-2.8-5.6a2,2,0,0,0-1.79-1.11Z"/></svg>