<?xml version="1.0" encoding="utf-8"?>
<!-- Generator: Adobe Illustrator 20.1.0, SVG Export Plug-In . SVG Version: 6.00 Build 0)  -->
<svg version="1.1" id="Слой_1" xmlns="http://www.w3.org/2000/svg" xmlns:xlink="http://www.w3.org/1999/xlink" x="0px" y="0px"
	 viewBox="0 0 50 50" style="enable-background:new 0 0 50 50;" xml:space="preserve">
<path d="M49.5,19.9c-0.8-3.7-2.4-7.2-4.7-10.2c-2.3-3-5.3-5.4-8.7-7.1C32.6,0.9,28.8,0,25,0c-4.3,0-8.6,1.1-12.4,3.3
	c-3.8,2.1-6.9,5.2-9.1,9s-3.4,8-3.5,12.3c-0.1,4.3,1,8.6,3,12.4l-2.8,8.5C0,46.1,0,46.7,0.1,47.4C0.2,48,0.6,48.5,1,49
	s1,0.8,1.6,0.9c0.6,0.1,1.3,0.1,1.9-0.1l8.5-2.8c3.3,1.8,7.1,2.8,10.9,3c3.8,0.2,7.6-0.5,11.1-2.1c3.5-1.5,6.6-3.8,9-6.7
	c2.5-2.9,4.2-6.3,5.2-10C50.2,27.5,50.3,23.6,49.5,19.9z M46.3,30.7c-1.3,4.7-4,8.8-7.9,11.8c-3.9,3-8.6,4.6-13.4,4.6
	c-3.9,0-7.7-1-11-3c-0.2-0.1-0.5-0.2-0.7-0.2c-0.2,0-0.3,0-0.5,0.1L3.6,47c-0.1,0-0.2,0-0.3,0c-0.1,0-0.2-0.1-0.2-0.1S3,46.8,3,46.7
	c0-0.1,0-0.2,0-0.3L6,37.3c0.1-0.2,0.1-0.4,0.1-0.6c0-0.2-0.1-0.4-0.2-0.6C3.5,31.8,2.5,27,3.1,22.1S6,12.9,9.4,9.4
	c3.4-3.4,7.9-5.6,12.7-6.3c4.8-0.6,9.7,0.3,13.9,2.8c4.2,2.4,7.5,6.2,9.4,10.7C47.2,21,47.6,26,46.3,30.7z"/>
<path d="M39.4,29.6l-7.8-3.9c-0.2-0.1-0.5-0.2-0.7-0.2c-0.3,0-0.5,0.1-0.7,0.2l-3.8,2.6c-1.9-1-3.5-2.6-4.5-4.5l2.6-3.8
	c0.1-0.2,0.2-0.5,0.2-0.7c0-0.3,0-0.5-0.2-0.7l-3.9-7.8c-0.1-0.2-0.3-0.5-0.5-0.6c-0.2-0.1-0.5-0.2-0.8-0.2c-2.5,0-4.8,1-6.6,2.7
	c-1.7,1.7-2.7,4.1-2.7,6.6C9.8,24.7,12,30.1,16,34s9.3,6.2,14.9,6.2c2.5,0,4.8-1,6.6-2.7c1.7-1.7,2.7-4.1,2.7-6.6
	c0-0.3-0.1-0.5-0.2-0.8C39.8,29.9,39.6,29.7,39.4,29.6z M35.1,35.7c-1.2,1-2.6,1.6-4.2,1.6c-4.8,0-9.4-1.9-12.8-5.3
	c-3.4-3.4-5.3-8-5.3-12.8c0-1.5,0.6-3,1.6-4.2c1-1.2,2.4-1.9,3.9-2.1l3.1,6.2l-2.5,3.8c-0.1,0.2-0.2,0.4-0.2,0.7
	c0,0.2,0,0.5,0.1,0.7c1.4,3.2,3.9,5.8,7.1,7.1c0.2,0.1,0.5,0.1,0.7,0.1c0.2,0,0.5-0.1,0.7-0.2l3.8-2.5l6.2,3.1
	C37,33.3,36.2,34.7,35.1,35.7z"/>
</svg>
