<svg id="Слой_1" data-name="Слой 1" xmlns="http://www.w3.org/2000/svg" viewBox="0 0 50 50"><title>whatsapp_fill_1</title><path d="M25,7.83a17.17,17.17,0,0,1,6.87,32.89A17.07,17.07,0,0,1,25,42.17l-.73,0a17.26,17.26,0,0,1-7.46-2.06,2,2,0,0,0-1.59-.14L8.67,42.13a.63.63,0,0,1-.2,0l-.15,0a.63.63,0,0,1-.45-.81l2.18-6.55a2,2,0,0,0-.14-1.59A17.17,17.17,0,0,1,25,7.83h0m0-2A19.17,19.17,0,0,0,8.16,34.15L6,40.7A2.63,2.63,0,0,0,9.3,44l6.55-2.18a19.17,19.17,0,0,0,8.33,2.3l.81,0A19.17,19.17,0,0,0,25,5.83Z"/><path d="M19.82,15.65l2.38,4.76-2,2.93a1.13,1.13,0,0,0-.1,1.06,10.23,10.23,0,0,0,5.46,5.46,1.13,1.13,0,0,0,.43.09h.11a1.13,1.13,0,0,0,.52-.18l2.93-2,4.76,2.38a4.89,4.89,0,0,1-4.84,4.21A13.92,13.92,0,0,1,15.61,20.49a4.89,4.89,0,0,1,4.21-4.84m0-2-.28,0a6.89,6.89,0,0,0-5.94,6.82A15.92,15.92,0,0,0,29.51,36.4a6.89,6.89,0,0,0,6.82-5.94,2,2,0,0,0-1.09-2.06L30.49,26a2,2,0,0,0-2,.12L26,27.82A8.17,8.17,0,0,1,22.18,24l1.68-2.52a2,2,0,0,0,.12-2l-2.38-4.76a2,2,0,0,0-1.79-1.11Z"/></svg>