<svg id="Слой_1" data-name="Слой 1" xmlns="http://www.w3.org/2000/svg" viewBox="0 0 50 50"><title>whatsapp_fill</title><path d="M25,2a23,23,0,0,1,9.21,44.07A22.87,22.87,0,0,1,25,48l-1,0a23.13,23.13,0,0,1-10-2.76,2,2,0,0,0-1.59-.14L3.89,47.92a1.43,1.43,0,0,1-1.81-1.81l2.85-8.55A2,2,0,0,0,4.79,36,23,23,0,0,1,25,2h0m0-2A25,25,0,0,0,3,36.93L.18,45.48a3.43,3.43,0,0,0,4.34,4.34L13.07,47a25,25,0,0,0,10.87,3L25,50A25,25,0,0,0,25,0Z" transform="translate(0)"/><path d="M18.25,12.81,21.35,19,18.8,22.83a1.47,1.47,0,0,0-.13,1.38,13.34,13.34,0,0,0,7.13,7.13,1.47,1.47,0,0,0,.57.11h.14a1.47,1.47,0,0,0,.67-.24L31,28.66l6.21,3.1a6.37,6.37,0,0,1-6.31,5.5A18.16,18.16,0,0,1,12.75,19.12a6.37,6.37,0,0,1,5.5-6.31m0-2-.28,0a8.37,8.37,0,0,0-7.22,8.29A20.16,20.16,0,0,0,30.89,39.25,8.37,8.37,0,0,0,39.18,32,2,2,0,0,0,38.1,30l-6.21-3.1a2,2,0,0,0-2,.12l-3.58,2.39a11.27,11.27,0,0,1-5.68-5.68L23,20.12a2,2,0,0,0,.12-2L20,11.91a2,2,0,0,0-1.79-1.11Z" transform="translate(0)"/></svg>